<svg width="24" height="25" viewBox="0 0 24 25" fill="none" xmlns="http://www.w3.org/2000/svg">
<path d="M16.19 2.29688H7.81C4.17 2.29688 2 4.46687 2 8.10687V16.4769C2 20.1269 4.17 22.2969 7.81 22.2969H16.18C19.82 22.2969 21.99 20.1269 21.99 16.4869V8.10687C22 4.46687 19.83 2.29688 16.19 2.29688ZM17.69 14.3469C17.65 14.4369 17.6 14.5169 17.53 14.5869L14.58 17.5369C14.43 17.6869 14.24 17.7569 14.05 17.7569C13.86 17.7569 13.67 17.6869 13.52 17.5369C13.23 17.2469 13.23 16.7669 13.52 16.4769L15.19 14.8069H7C6.59 14.8069 6.25 14.4669 6.25 14.0569C6.25 13.6469 6.59 13.3069 7 13.3069H17C17.1 13.3069 17.19 13.3269 17.29 13.3669C17.47 13.4469 17.62 13.5869 17.7 13.7769C17.77 13.9569 17.77 14.1569 17.69 14.3469ZM17 11.2869H7C6.9 11.2869 6.81 11.2669 6.71 11.2269C6.53 11.1469 6.38 11.0069 6.3 10.8169C6.22 10.6369 6.22 10.4269 6.3 10.2469C6.35 10.1569 6.4 10.0769 6.47 10.0069L9.42 7.05688C9.71 6.76688 10.19 6.76688 10.48 7.05688C10.77 7.34688 10.77 7.82688 10.48 8.11688L8.81 9.78687H17C17.41 9.78687 17.75 10.1269 17.75 10.5369C17.75 10.9469 17.41 11.2869 17 11.2869Z" fill="white"/>
</svg>
