<svg width="24" height="25" viewBox="0 0 24 25" fill="none" xmlns="http://www.w3.org/2000/svg">
<path d="M19.33 5.97812L13.06 2.59813C12.4 2.23812 11.6 2.23812 10.94 2.59813L4.66999 5.97812C4.20999 6.22812 3.92999 6.70813 3.92999 7.25813C3.92999 7.79813 4.20999 8.28813 4.66999 8.53813L10.94 11.9181C11.27 12.0981 11.64 12.1881 12 12.1881C12.36 12.1881 12.73 12.0981 13.06 11.9181L19.33 8.53813C19.79 8.28813 20.07 7.80813 20.07 7.25813C20.07 6.70813 19.79 6.22812 19.33 5.97812Z" fill="white"/>
<path d="M9.91 13.0869L4.07 10.1669C3.62 9.94687 3.1 9.96688 2.68 10.2269C2.25 10.4969 2 10.9469 2 11.4469V16.9569C2 17.9069 2.53 18.7669 3.38 19.1969L9.21 22.1169C9.41 22.2169 9.63 22.2669 9.85 22.2669C10.11 22.2669 10.37 22.1969 10.6 22.0569C11.03 21.7969 11.28 21.3369 11.28 20.8369V15.3269C11.29 14.3669 10.76 13.5069 9.91 13.0869Z" fill="white"/>
<path d="M21.32 10.2231C20.89 9.96311 20.37 9.93311 19.93 10.1631L14.1 13.0831C13.25 13.5131 12.72 14.3631 12.72 15.3231V20.8331C12.72 21.3331 12.97 21.7931 13.4 22.0531C13.63 22.1931 13.89 22.2631 14.15 22.2631C14.37 22.2631 14.59 22.2131 14.79 22.1131L20.62 19.1931C21.47 18.7631 22 17.9131 22 16.9531V11.4431C22 10.9431 21.75 10.4931 21.32 10.2231Z" fill="white"/>
</svg>
