<svg width="24" height="25" viewBox="0 0 24 25" fill="none" xmlns="http://www.w3.org/2000/svg">
<path d="M21.25 18.767L19.6 19.157C19.23 19.247 18.94 19.527 18.86 19.897L18.51 21.367C18.32 22.167 17.3 22.417 16.77 21.787L13.78 18.347C13.54 18.067 13.67 17.627 14.03 17.537C15.8 17.107 17.39 16.117 18.56 14.707C18.75 14.477 19.09 14.447 19.3 14.657L21.52 16.877C22.28 17.637 22.01 18.587 21.25 18.767Z" fill="white"/>
<path d="M2.70001 18.767L4.35001 19.157C4.72001 19.247 5.01001 19.527 5.09001 19.897L5.44001 21.367C5.63001 22.167 6.65001 22.417 7.18001 21.787L10.17 18.347C10.41 18.067 10.28 17.627 9.92001 17.537C8.15001 17.107 6.56001 16.117 5.39001 14.707C5.20001 14.477 4.86001 14.447 4.65001 14.657L2.43001 16.877C1.67001 17.637 1.94001 18.587 2.70001 18.767Z" fill="white"/>
<path d="M12 2.29688C8.13 2.29688 5 5.42688 5 9.29688C5 10.7469 5.43 12.0769 6.17 13.1869C7.25 14.7869 8.96 15.9169 10.95 16.2069C11.29 16.2669 11.64 16.2969 12 16.2969C12.36 16.2969 12.71 16.2669 13.05 16.2069C15.04 15.9169 16.75 14.7869 17.83 13.1869C18.57 12.0769 19 10.7469 19 9.29688C19 5.42688 15.87 2.29688 12 2.29688ZM15.06 9.07687L14.23 9.90687C14.09 10.0469 14.01 10.3169 14.06 10.5169L14.3 11.5469C14.49 12.3569 14.06 12.6769 13.34 12.2469L12.34 11.6569C12.16 11.5469 11.86 11.5469 11.68 11.6569L10.68 12.2469C9.96 12.6669 9.53 12.3569 9.72 11.5469L9.96 10.5169C10 10.3269 9.93 10.0469 9.79 9.90687L8.94 9.07687C8.45 8.58687 8.61 8.09688 9.29 7.98688L10.36 7.80688C10.54 7.77688 10.75 7.61687 10.83 7.45687L11.42 6.27688C11.74 5.63688 12.26 5.63688 12.58 6.27688L13.17 7.45687C13.25 7.61687 13.46 7.77688 13.65 7.80688L14.72 7.98688C15.39 8.09688 15.55 8.58687 15.06 9.07687Z" fill="white"/>
</svg>
