<svg width="24" height="25" viewBox="0 0 24 25" fill="none" xmlns="http://www.w3.org/2000/svg">
<path d="M12.5 5.77813C12.58 5.77813 12.66 5.77812 12.75 5.78812V2.82812C12.75 2.41813 12.41 2.07812 12 2.07812C11.59 2.07812 11.25 2.41813 11.25 2.82812V5.78812C11.33 5.77812 11.41 5.77813 11.5 5.77813C6.89 6.00813 3.22 9.80813 3.22 14.4781V16.4181C3.22 17.5181 4.12 18.4181 5.22 18.4181H18.78C19.88 18.4181 20.78 17.5181 20.78 16.4181V14.4781C20.78 9.80813 17.11 6.00813 12.5 5.77813Z" fill="white"/>
<path d="M14.73 19.4062C15.06 19.4062 15.3 19.7162 15.22 20.0362C14.84 21.4662 13.54 22.5162 12 22.5162C10.46 22.5162 9.16001 21.4662 8.78001 20.0362C8.70001 19.7162 8.94001 19.4062 9.27001 19.4062H14.73Z" fill="white"/>
</svg>
