<svg width="24" height="25" viewBox="0 0 24 25" fill="none" xmlns="http://www.w3.org/2000/svg">
<path d="M12.92 2.56063L19.43 6.07063C20.19 6.48063 20.19 7.65063 19.43 8.06063L12.92 11.5706C12.34 11.8806 11.66 11.8806 11.08 11.5706L4.57 8.06063C3.81 7.65063 3.81 6.48063 4.57 6.07063L11.08 2.56063C11.66 2.25062 12.34 2.25062 12.92 2.56063Z" stroke="#0C0903" stroke-width="1.5" stroke-linecap="round" stroke-linejoin="round"/>
<path d="M3.61 10.4246L9.66 13.4546C10.41 13.8346 10.89 14.6046 10.89 15.4446V21.1646C10.89 21.9946 10.02 22.5246 9.28 22.1546L3.23 19.1246C2.48 18.7446 2 17.9746 2 17.1346V11.4146C2 10.5846 2.87 10.0546 3.61 10.4246Z" stroke="#0C0903" stroke-width="1.5" stroke-linecap="round" stroke-linejoin="round"/>
<path d="M20.39 10.4246L14.34 13.4546C13.59 13.8346 13.11 14.6046 13.11 15.4446V21.1646C13.11 21.9946 13.98 22.5246 14.72 22.1546L20.77 19.1246C21.52 18.7446 22 17.9746 22 17.1346V11.4146C22 10.5846 21.13 10.0546 20.39 10.4246Z" stroke="#0C0903" stroke-width="1.5" stroke-linecap="round" stroke-linejoin="round"/>
</svg>
