<svg width="24" height="25" viewBox="0 0 24 25" fill="none" xmlns="http://www.w3.org/2000/svg">
<path d="M19 9.29688C19 10.7469 18.57 12.0769 17.83 13.1869C16.75 14.7869 15.04 15.9169 13.05 16.2069C12.71 16.2669 12.36 16.2969 12 16.2969C11.64 16.2969 11.29 16.2669 10.95 16.2069C8.96 15.9169 7.25 14.7869 6.17 13.1869C5.43 12.0769 5 10.7469 5 9.29688C5 5.42688 8.13 2.29688 12 2.29688C15.87 2.29688 19 5.42688 19 9.29688Z" stroke="#292D32" stroke-width="1.5" stroke-linecap="round" stroke-linejoin="round"/>
<path d="M21.25 18.7653L19.6 19.1553C19.23 19.2453 18.94 19.5253 18.86 19.8953L18.51 21.3653C18.32 22.1653 17.3 22.4053 16.77 21.7753L12 16.2953L7.22999 21.7853C6.69999 22.4153 5.67999 22.1753 5.48999 21.3753L5.13999 19.9053C5.04999 19.5353 4.75999 19.2453 4.39999 19.1653L2.74999 18.7753C1.98999 18.5953 1.71999 17.6453 2.26999 17.0953L6.16999 13.1953C7.24999 14.7953 8.95999 15.9253 10.95 16.2153C11.29 16.2753 11.64 16.3053 12 16.3053C12.36 16.3053 12.71 16.2753 13.05 16.2153C15.04 15.9253 16.75 14.7953 17.83 13.1953L21.73 17.0953C22.28 17.6353 22.01 18.5853 21.25 18.7653Z" stroke="#292D32" stroke-width="1.5" stroke-linecap="round" stroke-linejoin="round"/>
<path d="M12.58 6.27687L13.17 7.45687C13.25 7.61687 13.46 7.77687 13.65 7.80687L14.72 7.98687C15.4 8.09687 15.56 8.59687 15.07 9.08687L14.24 9.91686C14.1 10.0569 14.02 10.3269 14.07 10.5269L14.31 11.5569C14.5 12.3669 14.07 12.6869 13.35 12.2569L12.35 11.6669C12.17 11.5569 11.87 11.5569 11.69 11.6669L10.69 12.2569C9.97 12.6769 9.54 12.3669 9.73 11.5569L9.97 10.5269C10.01 10.3369 9.94 10.0569 9.8 9.91686L8.97 9.08687C8.48 8.59687 8.64 8.10687 9.32 7.98687L10.39 7.80687C10.57 7.77687 10.78 7.61687 10.86 7.45687L11.45 6.27687C11.74 5.63688 12.26 5.63688 12.58 6.27687Z" stroke="#292D32" stroke-width="1.5" stroke-linecap="round" stroke-linejoin="round"/>
</svg>
